<svg xmlns="http://www.w3.org/2000/svg" width="16" height="13" fill="none"  xmlns:v="https://vecta.io/nano"><path d="M7.876.625A7.86 7.86 0 0 0 .001 8.5c0 1.449.383 2.816 1.066 3.965.137.274.438.41.738.41h12.113c.301 0 .602-.137.738-.41.684-1.148 1.094-2.516 1.094-3.965A7.88 7.88 0 0 0 7.876.625zm0 1.75c.383 0 .711.301.82.656-.027.055-.082.109-.109.191l-.246.738c-.137.109-.301.164-.465.164-.492 0-.875-.383-.875-.875a.88.88 0 0 1 .875-.875zm-5.25 7.875c-.492 0-.875-.383-.875-.875a.88.88 0 0 1 .875-.875.9.9 0 0 1 .875.875.88.88 0 0 1-.875.875zm1.313-4.375c-.492 0-.875-.383-.875-.875a.88.88 0 0 1 .875-.875.9.9 0 0 1 .875.875.88.88 0 0 1-.875.875zm6.727-1.969L8.997 8.938c.383.328.629.793.629 1.313 0 .328-.109.629-.246.875H6.345c-.137-.246-.219-.547-.219-.875 0-.902.711-1.668 1.613-1.723l1.695-5.031c.109-.355.465-.547.82-.41.355.109.519.492.41.82zm.41 1.559l.41-1.258c.109-.055.219-.055.328-.055a.88.88 0 0 1 .875.875.9.9 0 0 1-.875.875c-.328-.027-.574-.191-.738-.437zm2.051 4.785c-.492 0-.875-.383-.875-.875a.88.88 0 0 1 .875-.875.9.9 0 0 1 .875.875.88.88 0 0 1-.875.875z" fill="#53b9ea"/></svg>