<svg xmlns="http://www.w3.org/2000/svg" width="15" height="11" fill="none"  xmlns:v="https://vecta.io/nano"><path d="M14.646 3.563h-1.613l-.465-1.121C12.103 1.266 10.982.5 9.724.5H6.251c-1.258 0-2.379.766-2.844 1.941l-.465 1.121H1.329c-.219 0-.383.219-.328.41l.164.656c.027.164.164.246.328.246h.547c-.383.328-.602.793-.602 1.313V7.5a1.66 1.66 0 0 0 .438 1.148v1.477c0 .492.383.875.875.875h.875a.88.88 0 0 0 .875-.875V9.25h7v.875c0 .492.383.875.875.875h.875a.88.88 0 0 0 .875-.875V8.648c.246-.301.438-.684.438-1.148V6.188a1.73 1.73 0 0 0-.629-1.312h.574c.137 0 .273-.082.301-.246l.164-.656c.055-.191-.109-.41-.328-.41zm-9.625-.465c.219-.52.684-.848 1.23-.848h3.473c.547 0 1.012.328 1.23.848l.547 1.34h-7l.52-1.34zM3.626 7.5a.8.8 0 0 1-.875-.875c0-.52.328-.875.875-.875.52 0 1.312.793 1.312 1.313s-.793.438-1.312.438zm8.75 0c-.547 0-1.312.082-1.312-.437s.766-1.312 1.313-1.312a.83.83 0 0 1 .875.875c0 .547-.356.875-.875.875z" fill="#53b9ea"/></svg>