<svg xmlns="http://www.w3.org/2000/svg" width="19" height="15" fill="none"  xmlns:v="https://vecta.io/nano"><path d="M4.911 6.793c.246-.902.957-1.613 1.859-1.832l.301-.41.875-1.176c.055-.082.137-.164.219-.246l.301-1.531c.055-.246-.219-.383-.41-.246L6.415 2.719a.26.26 0 0 1-.355-.055L4.857.887c-.109-.219-.41-.137-.437.109L4.2 3.129c0 .137-.137.246-.301.219L1.821 2.91c-.246-.055-.383.219-.246.41l1.367 1.641a.26.26 0 0 1-.055.355L1.111 6.52c-.219.109-.137.41.109.438l2.133.219c.137 0 .246.137.219.301l-.437 2.078c-.055.246.219.383.41.246l.957-.793c-.027-.301-.027-.629.055-.93l.355-1.285zm13.508 3.637a1.77 1.77 0 0 0-.027-1.066 2.28 2.28 0 0 0-.629-.82l-.109-.82-.164-1.449c-.055-.465-.219-.902-.465-1.285-.191-.328-.629-.738-.93-.93-.273-.164-.547-.301-.848-.383l-3.363-.902c-.301-.082-.602-.109-.902-.082-.301 0-.601.055-.902.164-.137.027-.273.109-.41.164-.246.137-.492.328-.711.547l-.328.328-.875 1.176-.492.684a1.44 1.44 0 0 0-.492.109c-.492.219-.875.629-1.012 1.176l-.355 1.258a1.78 1.78 0 0 0 .027.93c.027.082.055.219.109.301l-.383 1.422c-.027.109-.027.219-.027.356.055.328.301.629.629.711l.848.219c.465.137.957-.137 1.094-.602l.219-.848 6.754 1.805-.219.848c-.137.465.137.957.629 1.066l.82.219a.86.86 0 0 0 .93-.301c.082-.082.109-.191.164-.301l.383-1.422c.055-.055.164-.137.219-.191.246-.219.41-.492.492-.82l.328-1.258zM7.974 7.176c.52.137 1.066 1.094.93 1.586-.137.52-.875.219-1.367.082a.81.81 0 0 1-.629-1.066c.137-.492.574-.738 1.066-.602zm7.957.766l-2.078-.547L9.15 6.137l.902-1.176c.191-.301.684-.52 1.039-.52.082 0 .246 0 .328.027l3.363.902a1.39 1.39 0 0 1 .875.738c.027.109.082.246.082.383l.191 1.449zm.492 1.504a.81.81 0 0 1 .629 1.066c-.137.492-.574.738-1.066.602-.52-.137-1.312-.246-1.176-.766.137-.492 1.121-1.039 1.613-.902z" fill="#53b9ea"/></svg>