<svg xmlns="http://www.w3.org/2000/svg" width="133" height="22" fill="#fff"  xmlns:v="https://vecta.io/nano"><path d="M3.168 13.734H.432c-.012.792.132 1.476.432 2.052s.702 1.05 1.206 1.422a5.16 5.16 0 0 0 1.764.81c.672.18 1.362.27 2.07.27.876 0 1.644-.102 2.304-.306.672-.204 1.23-.486 1.674-.846.456-.372.798-.81 1.026-1.314s.342-1.05.342-1.638c0-.72-.156-1.308-.468-1.764-.3-.468-.66-.84-1.08-1.116s-.846-.474-1.278-.594l-.99-.27-1.962-.504c-.492-.132-.882-.264-1.17-.396-.276-.132-.462-.276-.558-.432s-.144-.36-.144-.612c0-.276.06-.504.18-.684s.27-.33.45-.45a1.93 1.93 0 0 1 .63-.252 3.31 3.31 0 0 1 .684-.072c.348 0 .666.03.954.09a2.32 2.32 0 0 1 .792.306 1.52 1.52 0 0 1 .54.594c.144.252.228.57.252.954h2.736c0-.744-.144-1.374-.432-1.89-.276-.528-.654-.96-1.134-1.296s-1.032-.576-1.656-.72a7.77 7.77 0 0 0-1.926-.234c-.576 0-1.152.078-1.728.234s-1.092.396-1.548.72-.828.732-1.116 1.224C1.002 7.5.864 8.07.864 8.73c0 .588.108 1.092.324 1.512.228.408.522.75.882 1.026a5.04 5.04 0 0 0 1.224.684c.456.168.924.312 1.404.432l1.386.36c.456.108.864.234 1.224.378s.648.324.864.54c.228.216.342.498.342.846 0 .324-.084.594-.252.81-.168.204-.378.366-.63.486s-.522.204-.81.252a6.55 6.55 0 0 1-.81.054c-.372 0-.732-.042-1.08-.126a3.06 3.06 0 0 1-.918-.414 2.17 2.17 0 0 1-.612-.738c-.156-.3-.234-.666-.234-1.098zm9.386-2.178c.036-.6.186-1.098.45-1.494s.6-.714 1.008-.954a4.24 4.24 0 0 1 1.368-.504 7.54 7.54 0 0 1 1.548-.162c.468 0 .942.036 1.422.108.48.06.918.186 1.314.378s.72.462.972.81c.252.336.378.786.378 1.35v4.842c0 .42.024.822.072 1.206s.132.672.252.864h-2.592l-.126-.432-.054-.468a3.33 3.33 0 0 1-1.44.882 5.78 5.78 0 0 1-1.692.252 4.57 4.57 0 0 1-1.242-.162c-.384-.108-.72-.276-1.008-.504s-.516-.516-.684-.864c-.156-.348-.234-.762-.234-1.242 0-.528.09-.96.27-1.296.192-.348.432-.624.72-.828.3-.204.636-.354 1.008-.45.384-.108.768-.192 1.152-.252l1.134-.144a6.82 6.82 0 0 0 .99-.162c.288-.072.516-.174.684-.306.168-.144.246-.348.234-.612 0-.276-.048-.492-.144-.648-.084-.168-.204-.294-.36-.378-.144-.096-.318-.156-.522-.18-.192-.036-.402-.054-.63-.054-.504 0-.9.108-1.188.324s-.456.576-.504 1.08h-2.556zm5.904 1.89c-.108.096-.246.174-.414.234-.156.048-.33.09-.522.126l-.576.09-.612.09a5.05 5.05 0 0 0-.576.144 1.7 1.7 0 0 0-.486.252 1.11 1.11 0 0 0-.324.378c-.084.156-.126.354-.126.594 0 .228.042.42.126.576a1.04 1.04 0 0 0 .342.378c.144.084.312.144.504.18s.39.054.594.054c.504 0 .894-.084 1.17-.252s.48-.366.612-.594c.132-.24.21-.48.234-.72.036-.24.054-.432.054-.576v-.954zm5.098-3.042V18h2.556v-7.596h1.764v-1.71h-1.764v-.558c0-.384.072-.654.216-.81.156-.168.408-.252.756-.252.324 0 .636.018.936.054V5.22l-.666-.036a6.53 6.53 0 0 0-.684-.036c-1.044 0-1.824.264-2.34.792s-.774 1.206-.774 2.034v.72h-1.53v1.71h1.53zm11.7 1.944h-4.158a3.3 3.3 0 0 1 .108-.612 2.11 2.11 0 0 1 .342-.648 1.96 1.96 0 0 1 .648-.504c.276-.144.618-.216 1.026-.216.624 0 1.086.168 1.386.504.312.336.528.828.648 1.476zm-4.158 1.62h6.714a6.57 6.57 0 0 0-.18-2.07c-.168-.66-.444-1.248-.828-1.764-.372-.516-.852-.924-1.44-1.224-.588-.312-1.278-.468-2.07-.468-.708 0-1.356.126-1.944.378-.576.252-1.074.6-1.494 1.044-.42.432-.744.948-.972 1.548s-.342 1.248-.342 1.944c0 .72.108 1.38.324 1.98a4.61 4.61 0 0 0 .954 1.548c.408.432.906.768 1.494 1.008.588.228 1.248.342 1.98.342 1.056 0 1.956-.24 2.7-.72s1.296-1.278 1.656-2.394H35.4c-.084.288-.312.564-.684.828-.372.252-.816.378-1.332.378-.72 0-1.272-.186-1.656-.558s-.594-.972-.63-1.8z"/><path d="M39.832 5.148V18h1.71V5.148h-1.71zm4.334 3.546V18h1.53v-5.256c0-.42.054-.804.162-1.152a2.74 2.74 0 0 1 .522-.936c.228-.264.51-.468.846-.612.348-.144.756-.216 1.224-.216.588 0 1.05.168 1.386.504s.504.792.504 1.368V18h1.53v-6.12c0-.504-.054-.96-.162-1.368-.096-.42-.27-.78-.522-1.08s-.582-.534-.99-.702-.918-.252-1.53-.252c-1.38 0-2.388.564-3.024 1.692h-.036V8.694h-1.44zm12.126 0v-2.79h-1.53v2.79h-1.584v1.35h1.584v5.922c0 .432.042.78.126 1.044s.21.468.378.612c.18.144.408.246.684.306.288.048.63.072 1.026.072h1.17v-1.35h-.702a8.01 8.01 0 0 1-.594-.018c-.144-.024-.258-.066-.342-.126a.49.49 0 0 1-.18-.252 2.07 2.07 0 0 1-.036-.432v-5.778h1.854v-1.35h-1.854zm10.016 3.762h-5.346c.024-.36.102-.696.234-1.008.132-.324.312-.606.54-.846s.498-.426.81-.558a2.63 2.63 0 0 1 1.08-.216c.384 0 .732.072 1.044.216.324.132.6.318.828.558.24.228.426.504.558.828.144.324.228.666.252 1.026zm1.476 2.592h-1.512c-.132.612-.408 1.068-.828 1.368-.408.3-.936.45-1.584.45-.504 0-.942-.084-1.314-.252s-.678-.39-.918-.666c-.24-.288-.414-.612-.522-.972-.108-.372-.156-.762-.144-1.17h6.966a7.14 7.14 0 0 0-.162-1.782 4.92 4.92 0 0 0-.684-1.728A3.88 3.88 0 0 0 65.767 9c-.54-.348-1.224-.522-2.052-.522-.636 0-1.224.12-1.764.36-.528.24-.99.576-1.386 1.008a4.73 4.73 0 0 0-.9 1.53 5.6 5.6 0 0 0-.324 1.944 7.72 7.72 0 0 0 .306 1.962 4.39 4.39 0 0 0 .846 1.548c.372.432.828.768 1.368 1.008.552.24 1.2.36 1.944.36 1.056 0 1.932-.264 2.628-.792s1.146-1.314 1.35-2.358zm1.676-6.354V18h1.53v-4.14c0-.6.06-1.128.18-1.584.12-.468.312-.864.576-1.188s.612-.57 1.044-.738.954-.252 1.566-.252v-1.62c-.828-.024-1.512.144-2.052.504s-.996.918-1.368 1.674h-.036V8.694h-1.44zm6.984 6.372h-1.53c.024.576.144 1.068.36 1.476a2.81 2.81 0 0 0 .864.972c.36.24.774.414 1.242.522s.96.162 1.476.162a6.97 6.97 0 0 0 1.404-.144c.48-.084.906-.24 1.278-.468.384-.228.69-.528.918-.9.24-.372.36-.84.36-1.404 0-.444-.09-.816-.27-1.116a2.12 2.12 0 0 0-.684-.738c-.276-.204-.6-.366-.972-.486-.36-.12-.732-.222-1.116-.306l-1.08-.234c-.36-.084-.684-.18-.972-.288-.288-.12-.528-.264-.72-.432-.18-.18-.27-.402-.27-.666 0-.24.06-.432.18-.576a1.17 1.17 0 0 1 .468-.36 2.15 2.15 0 0 1 .63-.198 4.73 4.73 0 0 1 .702-.054 3.03 3.03 0 0 1 .738.09 2.12 2.12 0 0 1 .684.252 1.5 1.5 0 0 1 .504.486c.132.192.21.438.234.738h1.53c-.036-.564-.156-1.032-.36-1.404a2.31 2.31 0 0 0-.828-.9c-.336-.228-.726-.384-1.17-.468-.444-.096-.93-.144-1.458-.144-.408 0-.822.054-1.242.162a3.55 3.55 0 0 0-1.116.468 2.61 2.61 0 0 0-.81.81c-.204.336-.306.738-.306 1.206 0 .6.15 1.068.45 1.404s.672.6 1.116.792c.456.18.948.324 1.476.432.528.096 1.014.21 1.458.342.456.12.834.282 1.134.486s.45.504.45.9c0 .288-.072.528-.216.72a1.39 1.39 0 0 1-.558.414c-.216.096-.456.162-.72.198a5.6 5.6 0 0 1-.756.054 4.67 4.67 0 0 1-.918-.09 2.83 2.83 0 0 1-.792-.288 1.77 1.77 0 0 1-.558-.558c-.144-.24-.222-.528-.234-.864zm14.526-2.61h-5.346c.024-.36.102-.696.234-1.008.132-.324.312-.606.54-.846s.498-.426.81-.558a2.63 2.63 0 0 1 1.08-.216c.384 0 .732.072 1.044.216.324.132.6.318.828.558.24.228.426.504.558.828.144.324.228.666.252 1.026zm1.476 2.592h-1.512c-.132.612-.408 1.068-.828 1.368-.408.3-.936.45-1.584.45-.504 0-.942-.084-1.314-.252s-.678-.39-.918-.666c-.24-.288-.414-.612-.522-.972-.108-.372-.156-.762-.144-1.17h6.966a7.14 7.14 0 0 0-.162-1.782 4.92 4.92 0 0 0-.684-1.728A3.88 3.88 0 0 0 90.43 9c-.54-.348-1.224-.522-2.052-.522-.636 0-1.224.12-1.764.36-.528.24-.99.576-1.386 1.008a4.73 4.73 0 0 0-.9 1.53 5.6 5.6 0 0 0-.324 1.944 7.72 7.72 0 0 0 .306 1.962 4.39 4.39 0 0 0 .846 1.548c.372.432.828.768 1.368 1.008.552.24 1.2.36 1.944.36 1.056 0 1.932-.264 2.628-.792s1.146-1.314 1.35-2.358zm8.047-3.366h1.584c-.06-.552-.204-1.026-.432-1.422-.228-.408-.522-.744-.882-1.008-.348-.264-.756-.456-1.224-.576-.456-.132-.948-.198-1.476-.198-.732 0-1.374.132-1.926.396-.552.252-1.014.606-1.386 1.062-.36.444-.63.972-.81 1.584-.18.6-.27 1.248-.27 1.944s.09 1.338.27 1.926c.192.576.468 1.074.828 1.494.372.42.828.744 1.368.972.552.228 1.182.342 1.89.342 1.188 0 2.124-.312 2.808-.936.696-.624 1.128-1.512 1.296-2.664h-1.566c-.096.72-.36 1.278-.792 1.674-.42.396-1.008.594-1.764.594-.48 0-.894-.096-1.242-.288a2.45 2.45 0 0 1-.846-.756c-.216-.324-.378-.69-.486-1.098-.096-.408-.144-.828-.144-1.26 0-.468.048-.918.144-1.35.096-.444.252-.834.468-1.17a2.55 2.55 0 0 1 .9-.81c.372-.204.834-.306 1.386-.306.648 0 1.164.162 1.548.486s.636.78.756 1.368zm5.474-2.988v-2.79h-1.53v2.79h-1.584v1.35h1.584v5.922c0 .432.042.78.126 1.044s.21.468.378.612c.18.144.408.246.684.306.288.048.63.072 1.026.072h1.17v-1.35h-.702a8.01 8.01 0 0 1-.594-.018c-.144-.024-.258-.066-.342-.126a.49.49 0 0 1-.18-.252 2.07 2.07 0 0 1-.036-.432v-5.778h1.854v-1.35h-1.854zm5.174-1.674V5.148h-1.53V7.02h1.53zm-1.53 1.674V18h1.53V8.694h-1.53zm5.016 4.662c0-.564.072-1.062.216-1.494.156-.444.366-.816.63-1.116s.57-.528.918-.684a2.82 2.82 0 0 1 1.134-.234c.396 0 .768.078 1.116.234.36.156.672.384.936.684s.468.672.612 1.116c.156.432.234.93.234 1.494s-.078 1.068-.234 1.512c-.144.432-.348.798-.612 1.098-.264.288-.576.51-.936.666-.348.156-.72.234-1.116.234a2.82 2.82 0 0 1-1.134-.234c-.348-.156-.654-.378-.918-.666-.264-.3-.474-.666-.63-1.098-.144-.444-.216-.948-.216-1.512zm-1.62 0c0 .684.096 1.32.288 1.908s.48 1.104.864 1.548c.384.432.858.774 1.422 1.026.564.24 1.212.36 1.944.36.744 0 1.392-.12 1.944-.36.564-.252 1.038-.594 1.422-1.026.384-.444.672-.96.864-1.548s.288-1.224.288-1.908-.096-1.32-.288-1.908c-.192-.6-.48-1.116-.864-1.548-.384-.444-.858-.792-1.422-1.044-.552-.252-1.2-.378-1.944-.378-.732 0-1.38.126-1.944.378s-1.038.6-1.422 1.044c-.384.432-.672.948-.864 1.548-.192.588-.288 1.224-.288 1.908zm10.84-4.662V18h1.53v-5.256c0-.42.054-.804.162-1.152a2.74 2.74 0 0 1 .522-.936c.228-.264.51-.468.846-.612.348-.144.756-.216 1.224-.216.588 0 1.05.168 1.386.504s.504.792.504 1.368V18h1.53v-6.12c0-.504-.054-.96-.162-1.368-.096-.42-.27-.78-.522-1.08s-.582-.534-.99-.702-.918-.252-1.53-.252c-1.38 0-2.388.564-3.024 1.692h-.036V8.694h-1.44z" fill-opacity=".5"/></svg>