<svg xmlns="http://www.w3.org/2000/svg" width="30" height="21" fill="#f5f7ff"  xmlns:v="https://vecta.io/nano"><path d="M0 20.656h2.182c.614 0 2.613-.996 4.057-2.284.633-.564 1.387-1.488 3.068-3.114s3.034-3.564 5.693-3.702h-2.114c-5.352 0-8.557 8.096-12.886 9.1z"/><path d="M0 20.691h2.352c2.898-.526 6.273-10.065 7.193-12.064S12.682.491 15 0h-2.114C8.011 0 4.636 18.587 0 20.691zm29.386 0h-2.182c-.614 0-2.613-.996-4.057-2.284-.633-.564-1.387-1.488-3.068-3.114s-3.034-3.564-5.693-3.702H16.5c5.352 0 8.557 8.096 12.886 9.1z"/><path d="M30 20.691h-2.352c-2.898-.526-6.273-10.065-7.193-12.064S17.318.491 15 0h2.114C21.989 0 25.364 18.587 30 20.691zm-30 0c1.118.194 5.125-3.783 6.886-5.744-1.718 3.322-2.977 4.936-3.614 5.432s-2.705.45-3.273.311z"/></svg>